PathFileType	4	(X/Y/Z)	E:\Qualisys_Data\Carbon_Farble_Plate\Data\Amateur_Runner\S1\T3\S1T3V21_c3d.trc
DataRate	CameraRate	NumFrames	NumMarkers	Units	OrigDataRate	OrigDataStartFrame	OrigNumFrames
200.000000	200.000000	5	39	mm	200.000000	74	298
Frame#	Time	LSHO			RSHO			LICST			RICST			LASIS			LHEEL			RASIS			LTROC			RTROC			SACR			LTH1			LSK4			LTH2			LTH3			RHM5			LSK2			LTH4			RTH1			LTOE			RTH2			RTH3			RTH4			LLEP			RLEP			LSK1			LSK3			RSK1			LHM5			RSK2			LFT1			RSK3			RSK4			LLME			RLME			RTOE			RHEEL			RFT1			RFT2			LFT2			
		X1	Y1	Z1	X2	Y2	Z2	X3	Y3	Z3	X4	Y4	Z4	X5	Y5	Z5	X6	Y6	Z6	X7	Y7	Z7	X8	Y8	Z8	X9	Y9	Z9	X10	Y10	Z10	X11	Y11	Z11	X12	Y12	Z12	X13	Y13	Z13	X14	Y14	Z14	X15	Y15	Z15	X16	Y16	Z16	X17	Y17	Z17	X18	Y18	Z18	X19	Y19	Z19	X20	Y20	Z20	X21	Y21	Z21	X22	Y22	Z22	X23	Y23	Z23	X24	Y24	Z24	X25	Y25	Z25	X26	Y26	Z26	X27	Y27	Z27	X28	Y28	Z28	X29	Y29	Z29	X30	Y30	Z30	X31	Y31	Z31	X32	Y32	Z32	X33	Y33	Z33	X34	Y34	Z34	X35	Y35	Z35	X36	Y36	Z36	X37	Y37	Z37	X38	Y38	Z38	X39	Y39	Z39	

75	0.37	-1476.569702148438	1545.0234375	-567.099365234375	-1400.72802734375	1552.613159179688	-252.4560394287109	-1445.320556640625	1080.6884765625	-517.8553466796875	-1434.937255859375	1096.694702148438	-224.1461791992188	-1402.631225585938	1043.521728515625	-489.6859741210938	-1263.868896484375	118.5213928222656	-415.0853881835938	-1402.099731445312	1044.655883789062	-231.3798828125	-1496.058715820312	957.2189331054688	-539.3323364257812	-1526.61962890625	974.0996704101562	-197.9467315673828	-1559.915893554688	1107.394897460938	-364.1888427734375	-1329.355712890625	839.7244873046875	-505.8145446777344	-1304.182861328125	285.8320007324219	-451.1405029296875	-1398.91357421875	805.4203491210938	-541.92041015625	-1292.867797851562	742.81591796875	-491.0169982910156	-1980.244018554688	217.7931060791016	-237.3842468261719	-1320.686767578125	381.2474365234375	-492.1947021484375	-1369.153564453125	712.4353637695312	-516.525390625	-1442.415161132812	814.9934692382812	-230.2298126220703	-1030.091796875	210.7695159912109	-433.1074523925781	-1512.443237304688	833.4921264648438	-198.7224578857422	-1473.640380859375	719.6996459960938	-241.4529113769531	-1546.091064453125	740.7745971679688	-213.6593627929688	-1285.334716796875	593.994873046875	-476.8302307128906	-1590.12548828125	573.0757446289062	-252.6791839599609	-1237.135986328125	391.9156494140625	-485.8409423828125	-1227.872436523438	291.2210693359375	-479.5611267089844	-1754.513916015625	472.7782592773438	-232.9068756103516	-1084.106079101562	155.8312377929688	-487.2600402832031	-1796.152587890625	541.1653442382812	-247.1127014160156	-1242.913818359375	97.83605194091795	-386.7639465332031	-1838.730102539062	417.3067321777344	-242.8563690185547	-1878.486328125	484.25830078125	-268.6681823730469	-1225.834838867188	161.3112487792969	-467.4859313964844	-1966.829223632812	371.3818359375	-243.9526672363281	-1944.649780273438	176.3200988769531	-309.2738952636719	-2025.902221679688	414.0241088867188	-287.9876708984375	-2045.406372070312	397.0066223144531	-321.3519592285156	-2049.6796875	402.41845703125	-269.1161804199219	-1244.846069335938	86.1532974243164	-437.3691711425781
76	0.375	-1454.824829101562	1542.94189453125	-568.1104125976562	-1380.002807617188	1551.1630859375	-253.3773651123047	-1424.834228515625	1079.146606445312	-517.3822631835938	-1414.978881835938	1094.723266601562	-223.4833984375	-1382.219116210938	1042.1025390625	-489.5723571777344	-1241.426025390625	115.0408248901367	-415.8580322265625	-1381.50244140625	1043.568237304688	-231.1536865234375	-1476.131713867188	955.1732788085938	-539.0308227539062	-1504.96533203125	971.6580200195312	-196.8170013427734	-1539.296020507812	1104.6533203125	-363.6879272460938	-1311.521728515625	834.3706665039062	-505.7409057617188	-1282.826538085938	283.0399780273438	-450.8533325195312	-1380.80224609375	801.3789672851562	-542.5543823242188	-1275.88916015625	737.4130859375	-488.6797180175781	-1962.742309570312	226.2106781005859	-237.9395599365234	-1299.4677734375	377.9039306640625	-491.4028015136719	-1352.300659179688	707.1552124023438	-517.3402099609375	-1419.1767578125	813.3746948242188	-230.5868682861328	-1008.729675292969	211.1951904296875	-433.0431823730469	-1488.979858398438	830.3075561523438	-198.6794586181641	-1449.05517578125	717.0440673828125	-241.7225799560547	-1521.622680664062	737.0238037109375	-213.528564453125	-1268.320556640625	590.771728515625	-475.8763122558594	-1563.940307617188	569.7229614257812	-252.3765563964844	-1217.120483398438	389.7833251953125	-485.2304077148438	-1206.252075195312	288.8580932617188	-478.7782287597656	-1730.254028320312	473.17236328125	-232.8051910400391	-1061.872192382812	156.0130615234375	-487.1590270996094	-1770.276733398438	542.9620361328125	-247.4635162353516	-1220.102172851562	95.66439819335938	-385.9288940429688	-1815.773071289062	421.1493835449219	-242.5027160644531	-1853.747192382812	488.3689575195312	-268.2015380859375	-1203.9638671875	159.3899230957031	-467.3331298828125	-1945.803466796875	378.943359375	-243.8525695800781	-1927.220336914062	183.7905883789062	-308.218505859375	-2003.81201171875	423.2035217285156	-288.4472351074219	-2024.075317382812	406.6231384277344	-321.2221374511719	-2027.9169921875	411.8331604003906	-269.30615234375	-1222.572265625	84.12279510498047	-437.7365417480469
77	0.38	-1433.324829101562	1540.348876953125	-568.544921875	-1358.88623046875	1549.816040039062	-254.1939849853516	-1404.207641601562	1077.02783203125	-517.6674194335938	-1394.812377929688	1092.559204101562	-223.2192840576172	-1361.573120117188	1040.471801757812	-489.3071899414062	-1220.639892578125	112.0144729614258	-415.5916442871094	-1361.026245117188	1041.447509765625	-231.1095886230469	-1455.48828125	952.453857421875	-538.3355102539062	-1483.306518554688	968.75537109375	-195.3260192871094	-1519.736694335938	1102.472045898438	-364.0879821777344	-1293.502197265625	829.1392822265625	-505.5030517578125	-1262.4052734375	280.1217041015625	-449.9291687011719	-1363.1044921875	798.0614013671875	-543.19091796875	-1258.5380859375	730.9794311523438	-489.0684204101562	-1944.192504882812	234.1262664794922	-237.4964294433594	-1279.402587890625	375.1829528808594	-490.39990234375	-1337.197509765625	703.4767456054688	-520.9400634765625	-1396.29541015625	810.3333740234375	-230.2524871826172	-988.3547973632812	210.5294494628906	-432.62890625	-1466.09814453125	826.3818359375	-199.2040557861328	-1424.312622070312	714.149169921875	-241.0086517333984	-1497.399536132812	733.520751953125	-213.2872924804688	-1250.581787109375	588.073486328125	-475.1119079589844	-1538.001342773438	565.74755859375	-252.5381622314453	-1197.8671875	387.4027099609375	-484.3207397460938	-1186.55810546875	286.4181823730469	-478.3177795410156	-1705.992065429688	473.0667419433594	-233.3053283691406	-1041.831787109375	155.276611328125	-487.3061828613281	-1742.775146484375	544.1956176757812	-247.2884216308594	-1198.696044921875	92.73533630371094	-385.6653747558594	-1792.23779296875	425.1314392089844	-242.141845703125	-1828.77392578125	492.5281677246094	-267.2694396972656	-1183.114501953125	156.9198455810547	-466.165283203125	-1924.785522460938	385.8769226074219	-244.6880493164062	-1909.688598632812	191.1024475097656	-308.4014587402344	-1980.389282226562	431.7302551269531	-288.5158081054688	-2001.815063476562	416.1033630371094	-321.6682739257812	-2005.406127929688	421.7434387207031	-269.3767700195312	-1202.950317382812	82.06550598144531	-436.90625
78	0.385	-1411.947875976562	1537.397338867188	-569.6270751953125	-1338.455078125	1547.759399414062	-255.51904296875	-1384.982421875	1075.28955078125	-517.475341796875	-1374.872802734375	1089.912719726562	-223.0851745605469	-1341.228149414062	1038.6337890625	-490.0048522949219	-1201.068603515625	108.7243118286133	-414.518310546875	-1340.2109375	1039.347045898438	-230.1894989013672	-1435.918334960938	949.4715576171876	-538.401123046875	-1462.111572265625	965.3179931640624	-194.7643585205078	-1499.349243164062	1099.53271484375	-363.2524108886719	-1275.049194335938	824.3268432617188	-505.5671691894531	-1243.41552734375	276.964599609375	-449.3113403320312	-1344.913452148438	794.7857055664062	-543.8082885742188	-1243.23193359375	725.957275390625	-490.7272338867188	-1925.676879882812	242.5881042480469	-237.7201080322266	-1260.046997070312	371.9730529785156	-489.2541809082031	-1320.5390625	699.78125	-522.3572387695312	-1373.427612304688	807.754150390625	-229.7170562744141	-969.6351318359376	208.5018463134766	-432.6487121582031	-1441.94775390625	823.5536499023438	-197.0210876464844	-1399.678100585938	710.748291015625	-240.6417999267578	-1472.186767578125	729.2654418945312	-212.7270965576172	-1232.520874023438	585.0416259765625	-474.1167602539062	-1512.0693359375	561.4078369140625	-252.0793762207031	-1178.503173828125	384.3345031738281	-483.6097412109375	-1166.556396484375	283.7408447265625	-476.9817504882812	-1680.705322265625	473.0459594726562	-233.5372619628906	-1022.806579589844	153.5125122070312	-486.3311462402344	-1716.357788085938	544.9933471679688	-247.6086578369141	-1178.962158203125	89.41622161865234	-385.0531921386719	-1769.662719726562	425.4861145019531	-243.2637786865234	-1802.917724609375	495.9513854980469	-267.322509765625	-1164.139038085938	154.0346069335938	-465.834228515625	-1901.650512695312	393.0357360839844	-244.6231994628906	-1892.396240234375	198.1157531738281	-308.6874084472656	-1956.790283203125	440.1769104003906	-288.5022277832031	-1978.162719726562	424.9400329589844	-321.6427612304688	-1981.412353515625	430.5699157714844	-269.0225830078125	-1181.829223632812	78.73384094238281	-436.3628845214844
79	0.39	-1390.966918945312	1534.092651367188	-570.8043823242188	-1318.148681640625	1545.756469726562	-256.2948608398438	-1364.982421875	1072.306518554688	-517.40673828125	-1355.01123046875	1087.390380859375	-222.7695617675781	-1320.891235351562	1035.329223632812	-491.5637512207031	-1182.809692382812	105.3848266601562	-413.0655517578125	-1319.820434570312	1036.75732421875	-230.2732543945312	-1416.028442382812	947.5722045898438	-537.7724609375	-1440.7685546875	961.6832885742188	-193.9120330810547	-1479.504516601562	1096.746337890625	-363.0711364746094	-1256.045532226562	820.7252807617188	-505.7369995117188	-1225.411865234375	273.9043579101562	-448.8820190429688	-1326.86767578125	792.4232788085938	-545.1956787109375	-1225.052612304688	722.1878662109375	-491.8666687011719	-1905.287841796875	250.1792602539062	-237.2298126220703	-1241.905029296875	368.6224060058594	-488.586669921875	-1302.612915039062	696.6881713867188	-522.7646484375	-1349.830932617188	805.15673828125	-229.1911468505859	-952.088623046875	205.6211242675781	-432.06494140625	-1419.164428710938	819.52294921875	-196.5259552001953	-1375.022216796875	707.9031982421875	-239.7134246826172	-1447.654052734375	724.6875	-212.3197021484375	-1214.09130859375	582.2880859375	-473.6323547363281	-1484.428100585938	556.6194458007812	-251.9074554443359	-1160.238525390625	380.6679382324219	-482.6220092773438	-1148.8212890625	280.0566711425781	-475.9720458984375	-1654.763793945312	472.5304260253906	-233.4256591796875	-1005.739990234375	150.9547119140625	-485.7730712890625	-1687.371948242188	545.394287109375	-246.6876068115234	-1160.521850585938	85.98583984375	-383.9019775390625	-1743.240966796875	428.4109191894531	-243.6408081054688	-1777.506958007812	499.5466613769531	-267.9450073242188	-1146.846069335938	150.6711273193359	-465.1007385253906	-1877.572021484375	400.20556640625	-244.7599182128906	-1872.814208984375	205.0430145263672	-308.51416015625	-1931.72265625	448.6636962890625	-288.7113952636719	-1953.975341796875	434.0119934082031	-322.3492736816406	-1956.1640625	440.0508117675781	-269.3556213378906	-1163.930786132812	75.14215087890625	-435.1010131835938
